<svg width="32" height="32" viewBox="0 0 32 32" xmlns="http://www.w3.org/2000/svg">
  <!-- 背景渐变 -->
  <defs>
    <linearGradient id="bgGradient" x1="0%" y1="0%" x2="100%" y2="100%">
      <stop offset="0%" style="stop-color:#10b981;stop-opacity:1" />
      <stop offset="100%" style="stop-color:#059669;stop-opacity:1" />
    </linearGradient>
    <linearGradient id="toolGradient" x1="0%" y1="0%" x2="100%" y2="100%">
      <stop offset="0%" style="stop-color:#ffffff;stop-opacity:1" />
      <stop offset="100%" style="stop-color:#e5e7eb;stop-opacity:1" />
    </linearGradient>
  </defs>
  
  <!-- 背景圆形 -->
  <circle cx="16" cy="16" r="15" fill="url(#bgGradient)" stroke="#047857" stroke-width="1"/>
  
  <!-- 工具图标组合 -->
  <!-- 括号符号 (代表代码) -->
  <path d="M8 10 L6 12 L6 20 L8 22" stroke="url(#toolGradient)" stroke-width="2" fill="none" stroke-linecap="round"/>
  <path d="M24 10 L26 12 L26 20 L24 22" stroke="url(#toolGradient)" stroke-width="2" fill="none" stroke-linecap="round"/>
  
  <!-- 齿轮图标 (代表工具) -->
  <circle cx="16" cy="16" r="3" fill="url(#toolGradient)"/>
  <circle cx="16" cy="16" r="1.5" fill="#10b981"/>
  
  <!-- 工具齿 -->
  <rect x="15" y="11" width="2" height="2" fill="url(#toolGradient)"/>
  <rect x="15" y="19" width="2" height="2" fill="url(#toolGradient)"/>
  <rect x="11" y="15" width="2" height="2" fill="url(#toolGradient)"/>
  <rect x="19" y="15" width="2" height="2" fill="url(#toolGradient)"/>
  
  <rect x="12.5" y="12.5" width="1.5" height="1.5" fill="url(#toolGradient)" transform="rotate(45 13.25 13.25)"/>
  <rect x="18" y="12.5" width="1.5" height="1.5" fill="url(#toolGradient)" transform="rotate(45 18.75 13.25)"/>
  <rect x="12.5" y="18" width="1.5" height="1.5" fill="url(#toolGradient)" transform="rotate(45 13.25 18.75)"/>
  <rect x="18" y="18" width="1.5" height="1.5" fill="url(#toolGradient)" transform="rotate(45 18.75 18.75)"/>
</svg>